<?xml version="1.0" encoding="utf-8"?>
<!-- Generator: Adobe Illustrator 26.0.0, SVG Export Plug-In . SVG Version: 6.00 Build 0)  -->
<svg version="1.1" id="Camada_1" xmlns="http://www.w3.org/2000/svg" xmlns:xlink="http://www.w3.org/1999/xlink" x="0px" y="0px"
	 viewBox="0 0 1000 423.6" style="enable-background:new 0 0 1000 423.6;" xml:space="preserve">
<g>
	<g>
		<path d="M997.7,280.7l-26.1-26.1c-3-3-7.9-3-11.1-0.2c-4.3,3.8-9.2,6.9-14.6,9.2c-7.8,3.4-16.5,5.1-26.2,5.1
			c-10.6,0-20-2.4-28.4-7.3c-8.4-4.8-15-11.6-19.8-20.2c-4.8-8.6-7.3-18.5-7.3-29.7c0-11.4,2.4-21.3,7.3-29.7
			c4.8-8.4,11.4-15,19.8-19.8c8.4-4.8,17.8-7.3,28.4-7.3c9.4,0,18,1.6,25.7,4.8c5.4,2.2,10.2,5.2,14.6,8.8c3.3,2.7,8,2.7,11-0.3
			l25.9-26.2c3.1-3.2,3.1-8.4-0.2-11.5c-9-8.6-19.3-15.5-30.8-20.5c-14.1-6.2-29.5-9.2-46.2-9.2c-21.4,0-40.8,4.9-58.3,14.7
			s-31.2,23.1-41.1,39.8c-10,16.7-15,35.6-15,56.7c0,20.8,5,39.6,15,56.3s23.6,29.9,40.9,39.6c17.3,9.7,36.8,14.5,58.5,14.5
			c16.7,0,32.1-3.1,46.2-9.2c11.6-5.1,22.1-12.1,31.6-20.9C1000.8,289.2,1000.9,283.9,997.7,280.7z M715.4,210.8c0-0.6,0-1.3,0-1.9
			c-0.4-19.7-5.4-37.5-14.9-53.5c-10-16.7-23.6-29.9-40.9-39.6c-16.5-9.3-35.1-14.1-55.6-14.5c-0.5,0-1,0-1.5,0s-0.9,0-1.4,0H601
			h-0.1c-1.2,0-2.4,0-3.6,0.1c-15.2,0.4-29.4,3.5-42.4,9.2c-1.7,0.8-3.4,1.6-5.1,2.4v-1.2c0-3.5-3.4-6.3-7-6.3h-44.5
			c-5.8,0-8.3,3.6-8.3,8v302c0,5.3,3.7,8,8.3,8h44.8c3.6,0,6.6-2.9,6.6-6.4V311.4c1.7,0.8,3.4,1.7,5.1,2.4
			c14.1,6.2,29.5,9.2,46.2,9.2c21.4,0,40.8-4.9,58.3-14.7c17.5-9.8,31.2-23.1,41.1-39.8c9.5-15.8,14.4-33.7,14.9-53.5
			c0-1,0-2.1,0-3.1c0,0,0,0,0-0.1c0,0,0,0,0-0.1C715.4,211.4,715.4,211.1,715.4,210.8z M649.2,241.9c-4.8,8.4-11.4,15-19.8,19.8
			c-4.1,2.4-8.5,4.2-13.1,5.4c-4.3,1-8.7,1.5-13.2,1.5c-32.3,0-58.4-25.4-58.4-56.6c0-31.3,26.2-56.6,58.4-56.6
			c2.6,0,5.1,0.2,7.6,0.5c6.8,1,13,3.2,18.8,6.5c8.4,4.8,15,11.6,19.8,20.2c4.8,8.6,7.3,18.5,7.3,29.7
			C656.5,223.6,654.1,233.5,649.2,241.9z M460.4,105.6h-45c-4.1,0-7.3,3.1-7.3,7v0.1c-1.7-0.8-3.4-1.7-5.2-2.4
			c-14.1-6.2-29.5-9.2-46.2-9.2c-21.4,0-40.8,4.9-58.3,14.7s-31.2,23.1-41.1,39.8c-8.9,15-13.8,31.7-14.8,50.2
			c0,0.6-0.1,1.3-0.1,1.9c0,0.3,0,0.6,0,0.9c0,1.1-0.1,2.2-0.1,3.3c0,0.1,0,0.2,0,0.2c0,0.1,0,0.1,0,0.2c0,20.8,5,39.6,15,56.3
			c10,16.7,23.6,29.9,40.9,39.6s36.8,14.5,58.5,14.5c16.7,0,32.1-3.1,46.2-9.2c1.7-0.8,3.5-1.6,5.2-2.4v0.1c0,3.8,3.2,6.9,7.2,6.9
			h45.3c4,0,7.2-3.1,7.2-6.9V112.7C467.8,108.7,464.5,105.6,460.4,105.6z M356.9,268.5c-25.1-0.9-46.2-17.2-53.5-39.5
			c-1.4-5.3-2.2-11-2.2-17.1c0-5.6,0.6-10.8,1.7-15.6c6.8-23,28.2-40,53.9-40.9c31.2,1.1,56.2,26,56.2,56.6
			C413.1,242.4,388.1,267.3,356.9,268.5z M217.2,0h-44.9c-3.7,0-6.6,2.9-6.6,6.4v106.3c-1.7-0.8-3.4-1.7-5.1-2.4
			c-14.1-6.2-29.5-9.2-46.2-9.2c-21.4,0-40.8,4.9-58.3,14.7S24.9,138.9,15,155.6c-8.9,15-13.8,31.7-14.8,50.2c0,0.6-0.1,1.3-0.1,1.9
			c0,0.3,0,0.6,0,0.9c0,1.1-0.1,2.2-0.1,3.3c0,0.1,0,0.2,0,0.2c0,0.1,0,0.1,0,0.2c0,20.8,5,39.6,15,56.3
			c10,16.7,23.6,29.9,40.9,39.6s36.8,14.5,58.5,14.5c16.7,0,32.1-3.1,46.2-9.2c1.7-0.8,3.4-1.6,5.1-2.4v0.7c0,3.5,3.4,6.3,7,6.3
			h44.5c4.6,0,8.3-3.6,8.3-8V8C225.5,3.6,221.8,0,217.2,0z M114.6,268.5c-25.1-0.9-46.2-17.2-53.5-39.5c-1.4-5.3-2.2-11-2.2-17.1
			c0-5.6,0.6-10.8,1.7-15.6c6.8-23,28.2-40,53.9-40.9c31.2,1.1,56.2,26,56.2,56.6C170.7,242.4,145.8,267.3,114.6,268.5z M734.1,78.6
			c0,1.1,0.6,2,1.6,2.4s2.1,0.2,2.9-0.6c2.6-2.6,5.1-3.9,8.1-5.8c4.5-2.7,9-3.2,13.5-3.2c4.6,0,9,0.5,13.5,3.2c3,1.8,5.5,3.1,8,5.6
			l0.2,0.2c0.8,0.7,1.9,1,2.9,0.6c0.3-0.1,0.5-0.3,0.7-0.5c0.6-0.5,0.9-1.2,0.9-2V61.1c0-7-3-13.2-7.7-16.3v-1.5
			c-0.1-15.7-5.9-30.8-16.3-42.6l0,0c-0.5-0.6-1.2-0.9-2-0.9s-1.5,0.3-2,0.9C748,12.5,742.1,27.6,742,43.3v1.3l-0.2,0.2
			c-4.7,3.1-7.7,9.3-7.7,16.3V78.6L734.1,78.6z M760.2,105.8c-16.1,0-29.6,24.1-29.6,64.2s15.3,151.8,29.6,151.8
			c12.7,0,29.6-111.7,29.6-151.8S776.3,105.8,760.2,105.8z"/>
	</g>
</g>
</svg>
